<svg width="35" height="35" viewBox="0 0 35 35" fill="none" xmlns="http://www.w3.org/2000/svg">
<rect width="35" height="35" rx="10" fill="white"/>
<path d="M11.8002 24.24C10.7468 24.24 9.86016 24.04 9.14016 23.64C8.43349 23.2267 7.84016 22.6067 7.36016 21.78L9.68016 20.04C9.90682 20.4533 10.1668 20.7667 10.4602 20.98C10.7535 21.18 11.0402 21.28 11.3202 21.28C11.7868 21.28 12.1402 21.14 12.3802 20.86C12.6335 20.5667 12.7602 20.0133 12.7602 19.2V11H16.2002V19.48C16.2002 20.3467 16.0402 21.14 15.7202 21.86C15.4135 22.58 14.9335 23.16 14.2802 23.6C13.6268 24.0267 12.8002 24.24 11.8002 24.24ZM23.1108 24.24C22.2974 24.24 21.4508 24.0867 20.5708 23.78C19.6908 23.4733 18.8974 23.0067 18.1908 22.38L20.1508 20.02C20.6174 20.3933 21.1174 20.7 21.6508 20.94C22.1974 21.1667 22.7108 21.28 23.1908 21.28C23.7108 21.28 24.0841 21.2 24.3108 21.04C24.5508 20.88 24.6708 20.6533 24.6708 20.36C24.6708 20.0533 24.5108 19.82 24.1908 19.66C23.8841 19.5 23.4574 19.3133 22.9108 19.1L21.2908 18.42C20.5974 18.14 19.9841 17.7 19.4508 17.1C18.9308 16.5 18.6708 15.7333 18.6708 14.8C18.6708 14.0533 18.8774 13.38 19.2908 12.78C19.7041 12.1667 20.2708 11.68 20.9908 11.32C21.7241 10.9467 22.5641 10.76 23.5108 10.76C24.2574 10.76 25.0108 10.9067 25.7708 11.2C26.5441 11.48 27.2308 11.9133 27.8308 12.5L26.1108 14.66C25.6708 14.3533 25.2441 14.12 24.8308 13.96C24.4308 13.8 23.9908 13.72 23.5108 13.72C23.0974 13.72 22.7641 13.7933 22.5108 13.94C22.2708 14.0867 22.1508 14.3067 22.1508 14.6C22.1508 14.9067 22.3241 15.1467 22.6708 15.32C23.0174 15.48 23.4841 15.6733 24.0708 15.9L25.6508 16.52C26.4641 16.84 27.0908 17.2867 27.5308 17.86C27.9708 18.4333 28.1908 19.1733 28.1908 20.08C28.1908 20.8133 27.9908 21.5 27.5908 22.14C27.2041 22.7667 26.6308 23.2733 25.8708 23.66C25.1108 24.0467 24.1908 24.24 23.1108 24.24Z" fill="black"/>
</svg>
